<svg width="20" height="18" viewBox="0 0 20 18" fill="none" xmlns="http://www.w3.org/2000/svg">
<path d="M19.92 9.37994C20.02 9.13648 20.02 8.8634 19.92 8.61994C19.8724 8.49719 19.801 8.38505 19.71 8.28994L12.71 1.28994C12.6168 1.1967 12.5061 1.12274 12.3842 1.07228C12.2624 1.02182 12.1319 0.99585 12 0.99585C11.7337 0.99585 11.4783 1.10164 11.29 1.28994C11.1968 1.38318 11.1228 1.49387 11.0723 1.61569C11.0219 1.73751 10.9959 1.86808 10.9959 1.99994C10.9959 2.26624 11.1017 2.52164 11.29 2.70994L16.59 7.99994H1C0.734784 7.99994 0.48043 8.1053 0.292893 8.29283C0.105357 8.48037 0 8.73472 0 8.99994C0 9.26516 0.105357 9.51951 0.292893 9.70705C0.48043 9.89458 0.734784 9.99994 1 9.99994H16.59L11.29 15.2899C11.1963 15.3829 11.1219 15.4935 11.0711 15.6154C11.0203 15.7372 10.9942 15.8679 10.9942 15.9999C10.9942 16.132 11.0203 16.2627 11.0711 16.3845C11.1219 16.5064 11.1963 16.617 11.29 16.7099C11.383 16.8037 11.4936 16.8781 11.6154 16.9288C11.7373 16.9796 11.868 17.0057 12 17.0057C12.132 17.0057 12.2627 16.9796 12.3846 16.9288C12.5064 16.8781 12.617 16.8037 12.71 16.7099L19.71 9.70994C19.801 9.61484 19.8724 9.50269 19.92 9.37994Z" fill="black"/>
</svg>
