<svg width="17" height="18" viewBox="0 0 17 18" fill="none" xmlns="http://www.w3.org/2000/svg">
<path d="M0.0679988 9.37994C-0.0170012 9.13648 -0.0170012 8.8634 0.0679988 8.61994C0.108459 8.49719 0.16915 8.38505 0.2465 8.28994L6.1965 1.28994C6.27572 1.1967 6.36981 1.12274 6.47343 1.07228C6.57696 1.02182 6.68788 0.99585 6.8 0.99585C7.02635 0.99585 7.24344 1.10164 7.4035 1.28994C7.48272 1.38318 7.54562 1.49387 7.58854 1.61569C7.63138 1.73751 7.65348 1.86808 7.65348 1.99994C7.65348 2.26624 7.56355 2.52164 7.4035 2.70994L2.8985 7.99994H16.15C16.3754 7.99994 16.5916 8.1053 16.751 8.29283C16.9104 8.48037 17 8.73472 17 8.99994C17 9.26516 16.9104 9.51951 16.751 9.70705C16.5916 9.89458 16.3754 9.99994 16.15 9.99994H2.8985L7.4035 15.2899C7.48314 15.3829 7.54638 15.4935 7.58956 15.6154C7.63274 15.7372 7.65493 15.8679 7.65493 15.9999C7.65493 16.132 7.63274 16.2627 7.58956 16.3845C7.54638 16.5064 7.48314 16.617 7.4035 16.7099C7.32445 16.8037 7.23044 16.8781 7.12691 16.9288C7.02329 16.9796 6.9122 17.0057 6.8 17.0057C6.6878 17.0057 6.5767 16.9796 6.47309 16.9288C6.36956 16.8781 6.27555 16.8037 6.1965 16.7099L0.2465 9.70994C0.16915 9.61484 0.108459 9.50269 0.0679988 9.37994Z" fill="black"/>
</svg>
