<svg width="63" height="69" viewBox="0 0 63 69" fill="none" xmlns="http://www.w3.org/2000/svg">
<g clip-path="url(#clip0_479_30)">
<path d="M9.44 64C8.77 64 8.1 63.83 7.48 63.49C6.82831 63.1428 6.28424 62.6237 5.90695 61.989C5.52965 61.3543 5.33356 60.6283 5.34 59.89V4.09997C5.34 2.57997 6.14 1.22997 7.48 0.499973C8.82 -0.230027 10.38 -0.170027 11.66 0.659973L54.8 28.56C55.97 29.32 56.67 30.6 56.67 32C56.67 33.4 55.97 34.68 54.8 35.44L11.66 63.34C10.97 63.78 10.21 64 9.44 64ZM9.43 1.93997C9.08 1.93997 8.73 2.02997 8.4 2.20997C7.7 2.58997 7.28 3.29997 7.28 4.09997V59.9C7.28 60.7 7.7 61.41 8.4 61.79C9.1 62.17 9.93 62.14 10.6 61.71L53.74 33.81C54.36 33.41 54.72 32.75 54.72 32C54.72 31.25 54.36 30.6 53.74 30.19L10.6 2.28997C10.24 2.05997 9.84 1.93997 9.43 1.93997Z" fill="black"/>
</g>
<defs>
<clipPath id="clip0_479_30">
<rect width="63" height="69" fill="white"/>
</clipPath>
</defs>
</svg>
