<svg width="50" height="47" viewBox="0 0 50 47" fill="none" xmlns="http://www.w3.org/2000/svg">
<path d="M44.4981 21.9754H28.3205V8.26316C28.3205 7.65704 28.0364 7.07575 27.5308 6.64715C27.0251 6.21856 26.3393 5.97778 25.6242 5.97778C24.9091 5.97778 24.2233 6.21856 23.7177 6.64715C23.212 7.07575 22.928 7.65704 22.928 8.26316V21.9754H6.75034C6.03525 21.9754 5.34944 22.2162 4.8438 22.6448C4.33815 23.0734 4.05408 23.6547 4.05408 24.2608C4.05408 24.8669 4.33815 25.4482 4.8438 25.8768C5.34944 26.3054 6.03525 26.5462 6.75034 26.5462H22.928V40.2584C22.928 40.8645 23.212 41.4458 23.7177 41.8744C24.2233 42.303 24.9091 42.5438 25.6242 42.5438C26.3393 42.5438 27.0251 42.303 27.5308 41.8744C28.0364 41.4458 28.3205 40.8645 28.3205 40.2584V26.5462H44.4981C45.2132 26.5462 45.899 26.3054 46.4046 25.8768C46.9103 25.4482 47.1944 24.8669 47.1944 24.2608C47.1944 23.6547 46.9103 23.0734 46.4046 22.6448C45.899 22.2162 45.2132 21.9754 44.4981 21.9754Z" fill="white"/>
</svg>
