<svg width="29" height="24" viewBox="0 0 29 24" fill="none" xmlns="http://www.w3.org/2000/svg">
<path d="M21.6533 11.6199C21.5958 11.4972 21.5096 11.385 21.3996 11.2899L15.3579 6.28994C15.2453 6.1967 15.1115 6.12274 14.9643 6.07228C14.8171 6.02182 14.6593 5.99585 14.5 5.99585C14.1782 5.99585 13.8696 6.10164 13.6421 6.28994C13.5294 6.38318 13.4401 6.49387 13.3791 6.61569C13.3181 6.73751 13.2867 6.86808 13.2867 6.99994C13.2867 7.26624 13.4145 7.52164 13.6421 7.70994L17.6296 10.9999H8.45833C8.13786 10.9999 7.83052 11.1053 7.60391 11.2928C7.37731 11.4804 7.25 11.7347 7.25 11.9999C7.25 12.2652 7.37731 12.5195 7.60391 12.707C7.83052 12.8946 8.13786 12.9999 8.45833 12.9999H17.6296L13.6421 16.2899C13.5288 16.3829 13.4389 16.4935 13.3776 16.6154C13.3162 16.7372 13.2847 16.8679 13.2847 16.9999C13.2847 17.132 13.3162 17.2627 13.3776 17.3845C13.4389 17.5064 13.5288 17.617 13.6421 17.7099C13.7544 17.8037 13.8881 17.8781 14.0353 17.9288C14.1825 17.9796 14.3405 18.0057 14.5 18.0057C14.6595 18.0057 14.8174 17.9796 14.9647 17.9288C15.1119 17.8781 15.2456 17.8037 15.3579 17.7099L21.3996 12.7099C21.5096 12.6148 21.5958 12.5027 21.6533 12.3799C21.7742 12.1365 21.7742 11.8634 21.6533 11.6199Z" fill="black"/>
</svg>
