<svg width="32" height="32" viewBox="0 0 32 32" fill="none" xmlns="http://www.w3.org/2000/svg">
<path d="M12.32 30.47C11.9315 30.472 11.5468 30.3937 11.19 30.24L9.33 29.47C8.59797 29.1648 8.01658 28.5821 7.713 27.8494C7.40942 27.1166 7.40834 26.2935 7.71 25.56L8.3 24.13C8.32312 24.0711 8.32882 24.0068 8.31641 23.9447C8.304 23.8827 8.274 23.8255 8.23 23.78C8.18478 23.7323 8.12636 23.6993 8.06222 23.685C7.99809 23.6708 7.93116 23.676 7.87 23.7L6.44 24.29C6.07562 24.4406 5.68511 24.5179 5.29082 24.5175C4.89653 24.5171 4.50618 24.439 4.14211 24.2876C3.77804 24.1362 3.44738 23.9145 3.16905 23.6353C2.89071 23.356 2.67016 23.0246 2.52 22.66L1.76 20.82C1.45522 20.0853 1.45465 19.2597 1.75844 18.5246C2.06222 17.7895 2.64549 17.2052 3.38 16.9L4.81 16.31C4.86777 16.2816 4.91629 16.2374 4.94992 16.1825C4.98356 16.1277 5.00092 16.0644 5 16C5.00287 15.934 4.98642 15.8685 4.95267 15.8117C4.91893 15.7549 4.86935 15.7091 4.81 15.68L3.38 15.1C2.64549 14.7948 2.06222 14.2105 1.75844 13.4754C1.45465 12.7403 1.45522 11.9147 1.76 11.18L2.53 9.32C2.83712 8.58977 3.42061 8.01065 4.15313 7.70902C4.88565 7.4074 5.70774 7.40775 6.44 7.71L7.87 8.3C7.92891 8.32312 7.99323 8.32882 8.05528 8.31641C8.11734 8.304 8.17452 8.274 8.22 8.23C8.26766 8.18478 8.30073 8.12636 8.31498 8.06222C8.32924 7.99809 8.32402 7.93116 8.3 7.87L7.71 6.44C7.55938 6.07562 7.48206 5.68511 7.48247 5.29082C7.48288 4.89653 7.56101 4.50618 7.7124 4.14211C7.86379 3.77804 8.08546 3.44738 8.36474 3.16905C8.64402 2.89071 8.97542 2.67016 9.34 2.52L11.18 1.76C11.9147 1.45522 12.7403 1.45465 13.4754 1.75844C14.2105 2.06222 14.7948 2.64549 15.1 3.38L15.69 4.81C15.7184 4.86777 15.7626 4.91629 15.8175 4.94992C15.8723 4.98356 15.9356 5.00092 16 5C16.066 5.00287 16.1315 4.98642 16.1883 4.95267C16.2451 4.91893 16.2909 4.86935 16.32 4.81L16.9 3.38C17.2052 2.64549 17.7895 2.06222 18.5246 1.75844C19.2597 1.45465 20.0853 1.45522 20.82 1.76L22.68 2.53C23.412 2.83523 23.9934 3.41792 24.297 4.15064C24.6006 4.88337 24.6017 5.70649 24.3 6.44L23.7 7.87C23.6769 7.92891 23.6712 7.99323 23.6836 8.05528C23.696 8.11734 23.726 8.17452 23.77 8.22C23.8152 8.26766 23.8737 8.30073 23.9378 8.31498C24.0019 8.32924 24.0689 8.32402 24.13 8.3L25.56 7.71C25.9244 7.55938 26.3149 7.48206 26.7092 7.48247C27.1035 7.48288 27.4938 7.56101 27.8579 7.7124C28.222 7.86379 28.5526 8.08546 28.831 8.36474C29.1093 8.64402 29.3298 8.97542 29.48 9.34L30.24 11.18C30.5448 11.9147 30.5454 12.7403 30.2416 13.4754C29.9378 14.2105 29.3545 14.7948 28.62 15.1L27.19 15.69C27.1322 15.7184 27.0837 15.7626 27.0501 15.8175C27.0165 15.8723 26.9991 15.9356 27 16C26.9971 16.066 27.0136 16.1315 27.0473 16.1883C27.0811 16.2451 27.1307 16.2909 27.19 16.32L28.62 16.9C29.3545 17.2052 29.9378 17.7895 30.2416 18.5246C30.5454 19.2597 30.5448 20.0853 30.24 20.82L29.47 22.68C29.1648 23.412 28.5821 23.9934 27.8494 24.297C27.1166 24.6006 26.2935 24.6017 25.56 24.3L24.13 23.71C24.0711 23.6869 24.0068 23.6812 23.9447 23.6936C23.8827 23.706 23.8255 23.736 23.78 23.78C23.7323 23.8252 23.6993 23.8837 23.685 23.9478C23.6708 24.0119 23.676 24.0789 23.7 24.14L24.29 25.57C24.4406 25.9344 24.5179 26.3249 24.5175 26.7192C24.5171 27.1135 24.439 27.5038 24.2876 27.8679C24.1362 28.232 23.9145 28.5626 23.6353 28.841C23.356 29.1193 23.0246 29.3398 22.66 29.49L20.82 30.25C20.0853 30.5548 19.2597 30.5554 18.5246 30.2516C17.7895 29.9478 17.2052 29.3645 16.9 28.63L16.31 27.2C16.2831 27.1404 16.2395 27.0898 16.1845 27.0543C16.1295 27.0188 16.0654 27 16 27C15.934 26.9971 15.8685 27.0136 15.8117 27.0473C15.7549 27.0811 15.7091 27.1307 15.68 27.19L15.1 28.62C14.8721 29.1691 14.4862 29.6382 13.9912 29.9676C13.4962 30.2969 12.9145 30.4718 12.32 30.47ZM8 21.67C8.38309 21.6731 8.75961 21.7698 9.09677 21.9517C9.43393 22.1336 9.72152 22.3951 9.93448 22.7136C10.1474 23.032 10.2793 23.3977 10.3186 23.7788C10.3579 24.1599 10.3035 24.5448 10.16 24.9L9.56 26.32C9.50947 26.4421 9.48362 26.5729 9.48394 26.705C9.48427 26.8371 9.51077 26.9679 9.56191 27.0897C9.61305 27.2115 9.68781 27.3219 9.78189 27.4147C9.87596 27.5074 9.98748 27.5806 10.11 27.63L12 28.4C12.1221 28.4505 12.2529 28.4764 12.385 28.4761C12.5171 28.4757 12.6479 28.4492 12.7697 28.3981C12.8915 28.347 13.0019 28.2722 13.0947 28.1781C13.1874 28.084 13.2606 27.9725 13.31 27.85L13.89 26.44C14.0611 26.0191 14.3525 25.6579 14.7278 25.4018C15.1031 25.1457 15.5457 25.0059 16 25C16.46 24.9972 16.9104 25.1318 17.2935 25.3865C17.6765 25.6413 17.9748 26.0047 18.15 26.43L18.74 27.85C18.7904 27.9716 18.8642 28.0821 18.9574 28.1752C19.0505 28.2682 19.1612 28.3419 19.2829 28.3921C19.4046 28.4422 19.535 28.4679 19.6666 28.4675C19.7983 28.4672 19.9286 28.4408 20.05 28.39L21.9 27.63C22.1414 27.5242 22.3342 27.3314 22.44 27.09C22.4909 26.968 22.5171 26.8372 22.5171 26.705C22.5171 26.5728 22.4909 26.442 22.44 26.32L21.85 24.9C21.6973 24.4813 21.6674 24.0277 21.7638 23.5926C21.8601 23.1575 22.0787 22.7589 22.3938 22.4438C22.7089 22.1287 23.1075 21.9101 23.5426 21.8138C23.9777 21.7174 24.4313 21.7473 24.85 21.9L26.27 22.5C26.3921 22.5505 26.5229 22.5764 26.655 22.5761C26.7871 22.5757 26.9179 22.5492 27.0397 22.4981C27.1615 22.447 27.2719 22.3722 27.3647 22.2781C27.4574 22.184 27.5306 22.0725 27.58 21.95L28.35 20.1C28.4005 19.9779 28.4264 19.8471 28.4261 19.715C28.4257 19.5829 28.3992 19.4521 28.3481 19.3303C28.297 19.2085 28.2222 19.0981 28.1281 19.0053C28.034 18.9126 27.9225 18.8394 27.8 18.79L26.39 18.21C25.9666 18.0308 25.6053 17.7309 25.3513 17.3476C25.0974 16.9644 24.9619 16.5148 24.9619 16.055C24.9619 15.5952 25.0974 15.1456 25.3513 14.7624C25.6053 14.3791 25.9666 14.0792 26.39 13.9L27.81 13.31C27.9352 13.2635 28.0498 13.1925 28.1471 13.101C28.2443 13.0095 28.3223 12.8995 28.3764 12.7774C28.4304 12.6553 28.4595 12.5236 28.4618 12.3901C28.4642 12.2566 28.4397 12.1239 28.39 12L27.63 10.15C27.5242 9.90861 27.3314 9.71584 27.09 9.61C26.968 9.55912 26.8372 9.53292 26.705 9.53292C26.5728 9.53292 26.442 9.55912 26.32 9.61L24.9 10.2C24.476 10.3594 24.0149 10.3924 23.5726 10.2949C23.1302 10.1974 22.7257 9.97358 22.4081 9.65066C22.0905 9.32774 21.8734 8.91957 21.7832 8.47568C21.693 8.0318 21.7336 7.57128 21.9 7.15L22.5 5.73C22.5505 5.60795 22.5764 5.47709 22.5761 5.34498C22.5757 5.21288 22.5492 5.08215 22.4981 4.96035C22.447 4.83854 22.3722 4.72808 22.2781 4.63533C22.184 4.54259 22.0725 4.4694 21.95 4.42L20.05 3.6C19.9279 3.54947 19.7971 3.52362 19.665 3.52394C19.5329 3.52427 19.4022 3.55077 19.2803 3.60191C19.1585 3.65305 19.0481 3.72781 18.9553 3.82189C18.8626 3.91596 18.7894 4.02748 18.74 4.15L18.16 5.56C17.9857 5.98881 17.6866 6.35536 17.3014 6.61213C16.9163 6.86889 16.4629 7.00402 16 7C15.54 7.00283 15.0896 6.86823 14.7065 6.61346C14.3235 6.35869 14.0252 5.99535 13.85 5.57L13.26 4.15C13.1583 3.91643 12.9713 3.73049 12.7371 3.63013C12.5029 3.52978 12.2393 3.52258 12 3.61L10.15 4.37C9.90861 4.47585 9.71584 4.66861 9.61 4.91C9.55912 5.03198 9.53292 5.16284 9.53292 5.295C9.53292 5.42717 9.55912 5.55803 9.61 5.68L10.2 7.1C10.3819 7.53173 10.4301 8.00812 10.3382 8.46752C10.2464 8.92692 10.0187 9.34817 9.68478 9.67674C9.35082 10.0053 8.92593 10.2261 8.46509 10.3104C8.00426 10.3948 7.52871 10.3389 7.1 10.15L5.68 9.55C5.55795 9.49947 5.42709 9.47362 5.29498 9.47394C5.16288 9.47427 5.03215 9.50077 4.91035 9.55191C4.78854 9.60305 4.67808 9.67781 4.58533 9.77189C4.49259 9.86596 4.4194 9.97748 4.37 10.1L3.6 12C3.54947 12.1221 3.52362 12.2529 3.52394 12.385C3.52427 12.5171 3.55077 12.6479 3.60191 12.7697C3.65305 12.8915 3.72781 13.0019 3.82189 13.0947C3.91596 13.1874 4.02748 13.2606 4.15 13.31L5.56 13.89C5.98343 14.0692 6.34469 14.3691 6.59867 14.7524C6.85265 15.1356 6.9881 15.5852 6.9881 16.045C6.9881 16.5048 6.85265 16.9544 6.59867 17.3376C6.34469 17.7209 5.98343 18.0208 5.56 18.2L4.14 18.79C4.01837 18.8404 3.90787 18.9142 3.81485 19.0074C3.72183 19.1005 3.64813 19.2112 3.59795 19.3329C3.54778 19.4546 3.52214 19.585 3.52249 19.7166C3.52284 19.8483 3.54918 19.9786 3.6 20.1L4.36 21.95C4.46585 22.1914 4.65861 22.3842 4.9 22.49C5.02198 22.5409 5.15284 22.5671 5.285 22.5671C5.41717 22.5671 5.54803 22.5409 5.67 22.49L7.09 21.9C7.3745 21.7621 7.68417 21.6839 8 21.67ZM16 21C15.1773 21.0015 14.3669 20.8 13.6407 20.4133C12.9145 20.0266 12.295 19.4667 11.837 18.7832C11.3791 18.0997 11.0969 17.3138 11.0154 16.4951C10.9339 15.6765 11.0557 14.8503 11.37 14.09C11.7158 13.2534 12.2822 12.5265 13.0088 11.9866C13.7354 11.4467 14.5949 11.1142 15.4957 11.0246C16.3964 10.9349 17.3046 11.0915 18.1234 11.4776C18.9421 11.8637 19.6407 12.4648 20.1446 13.2168C20.6485 13.9688 20.9387 14.8435 20.9844 15.7476C21.0301 16.6516 20.8296 17.5511 20.4041 18.3501C19.9786 19.1491 19.3442 19.8176 18.5686 20.2843C17.793 20.751 16.9052 20.9983 16 21ZM16 13C15.6054 13.0018 15.2149 13.0799 14.85 13.23C14.1155 13.5352 13.5322 14.1195 13.2284 14.8546C12.9247 15.5897 12.9252 16.4153 13.23 17.15C13.5352 17.8845 14.1195 18.4678 14.8546 18.7716C15.5897 19.0754 16.4153 19.0748 17.15 18.77C17.6972 18.5424 18.1647 18.1579 18.4936 17.6649C18.8225 17.172 18.998 16.5926 18.998 16C18.998 15.4074 18.8225 14.828 18.4936 14.3351C18.1647 13.8421 17.6972 13.4576 17.15 13.23C16.7865 13.0753 16.3951 12.997 16 13Z" fill="black"/>
</svg>
