<svg width="568" height="75" viewBox="0 0 568 75" fill="none" xmlns="http://www.w3.org/2000/svg">
<path d="M330.552 51.2452C312.424 51.2452 302.484 50.4998 287.219 48.6187L281.562 47.8449L275.149 59.0254C286.177 60.3884 306.057 61.5597 326.624 61.652C374.927 61.652 406.499 54.9295 406.877 44.5866C407.256 38.9004 394.807 34.5844 368.514 31.0279C352.562 28.7208 342.622 27.1733 342.622 24.8307C342.622 22.7579 351.119 20.5501 368.869 20.5501C380.664 20.465 392.39 21.1153 403.304 22.4597L407.564 23.0276L413.977 12.2233L412.865 12.2943C399.657 10.8722 385.718 10.1586 371.685 10.1859C326.245 10.1859 294.177 16.9582 293.94 26.6622C293.656 33.7964 316.755 37.8143 334.197 40.2066C352.113 42.6557 358.1 44.1961 358.053 46.3967C357.935 49.7403 343.735 51.2452 330.552 51.2452ZM530.796 11.1017H495.296C484.244 11.1017 475.984 11.989 471.132 15.2403L402.854 60.9563H451.158L460.814 53.4742L519.744 53.4884C521.187 55.2347 525.424 60.9563 525.424 60.9563H568L530.796 11.1017ZM474.043 43.2449L492.361 29.31C492.125 29.452 496.148 26.4279 498.467 24.5538L501.615 28.8557L512.241 43.2449H474.043ZM199.841 60.5588H245.849L274.604 10.6829H228.62V10.6687L199.841 60.5588ZM116.511 45.0977L111.73 38.1693V38.1906L95.5897 15.29C92.8207 12.1168 84.7267 11.1798 74.692 11.0662H0.591667L0 12.1168C16.685 13.2881 31.7133 14.9847 45.156 17.0646C47.2434 17.4307 48.7719 18.0267 49.416 18.7257L89.176 60.8853H137.787L210.231 11.1017H161.501L116.511 45.0977Z" fill="white"/>
</svg>
