<svg width="25" height="24" viewBox="0 0 25 24" fill="none" xmlns="http://www.w3.org/2000/svg">
<path fill-rule="evenodd" clip-rule="evenodd" d="M21.9896 11.0001V9.00009C21.9896 7.39809 20.6919 6.1001 19.0902 6.1001C15.4403 6.1001 7.73961 6.1001 4.08971 6.1001C2.48801 6.1001 1.19031 7.39809 1.19031 9.00009C1.19031 11.6611 1.19031 16.3391 1.19031 19.0001C1.19031 20.6021 2.48801 21.9001 4.08971 21.9001C7.73961 21.9001 15.4403 21.9001 19.0902 21.9001C20.6919 21.9001 21.9896 20.6021 21.9896 19.0001C21.9896 18.0001 21.9896 17.0001 21.9896 17.0001C21.9896 16.5031 21.5868 16.1001 21.0899 16.1001C20.5931 16.1001 20.1903 16.5031 20.1903 17.0001C20.1903 17.0001 20.1903 18.0001 20.1903 19.0001C20.1903 19.6081 19.6972 20.1001 19.0902 20.1001C15.4403 20.1001 7.73961 20.1001 4.08971 20.1001C3.48266 20.1001 2.98959 19.6081 2.98959 19.0001C2.98959 16.3391 2.98959 11.6611 2.98959 9.00009C2.98959 8.39209 3.48266 7.90009 4.08971 7.90009C7.73961 7.90009 15.4403 7.90009 19.0902 7.90009C19.6972 7.90009 20.1903 8.39209 20.1903 9.00009V11.0001C20.1903 11.4971 20.5931 11.9001 21.0899 11.9001C21.5868 11.9001 21.9896 11.4971 21.9896 11.0001Z" fill="#2C2C2C"/>
<path fill-rule="evenodd" clip-rule="evenodd" d="M4.492 7.80499C4.492 7.80499 10.047 5.02799 13.598 3.25199C13.939 3.08199 14.344 3.1 14.668 3.3C14.993 3.501 15.19 3.85499 15.19 4.23599C15.19 5.65299 15.19 7 15.19 7H16.99C16.99 7 16.99 5.65299 16.99 4.23599C16.99 3.23099 16.47 2.29799 15.615 1.76899C14.76 1.24099 13.692 1.19299 12.793 1.64199C9.242 3.41799 3.68799 6.195 3.68799 6.195L4.492 7.80499Z" fill="#2C2C2C"/>
<path fill-rule="evenodd" clip-rule="evenodd" d="M22.9899 13.0001C22.9899 11.3981 21.6919 10.1001 20.0899 10.1001C19.1829 10.1001 18.0919 10.1001 17.0899 10.1001C14.9359 10.1001 13.1899 11.8461 13.1899 14.0001C13.1899 16.1541 14.9359 17.9001 17.0899 17.9001C18.0919 17.9001 19.1829 17.9001 20.0899 17.9001C21.6919 17.9001 22.9899 16.6021 22.9899 15.0001V13.0001ZM21.1899 13.0001C21.1899 12.3921 20.6979 11.9001 20.0899 11.9001C19.1829 11.9001 18.0919 11.9001 17.0899 11.9001C15.9299 11.9001 14.9899 12.8401 14.9899 14.0001C14.9899 15.1601 15.9299 16.1001 17.0899 16.1001C18.0919 16.1001 19.1829 16.1001 20.0899 16.1001C20.6979 16.1001 21.1899 15.6081 21.1899 15.0001V13.0001Z" fill="#2C2C2C"/>
<path d="M17.0985 15.0003C17.6509 15.0003 18.0986 14.5523 18.0986 13.9997C18.0986 13.447 17.6509 12.999 17.0985 12.999C16.5461 12.999 16.0983 13.447 16.0983 13.9997C16.0983 14.5523 16.5461 15.0003 17.0985 15.0003Z" fill="#2C2C2C"/>
</svg>
