<svg width="35" height="35" viewBox="0 0 35 35" fill="none" xmlns="http://www.w3.org/2000/svg">
<path d="M30.59 17.72C30.2585 17.72 29.9405 17.5883 29.7061 17.3539C29.4717 17.1195 29.34 16.8015 29.34 16.47V12.87C29.3869 12.1616 29.153 11.4633 28.6888 10.9262C28.2247 10.389 27.5676 10.0563 26.86 10H5.22998C4.89846 10 4.58052 9.8683 4.3461 9.63388C4.11168 9.39946 3.97998 9.08152 3.97998 8.75C3.97998 8.41848 4.11168 8.10054 4.3461 7.86612C4.58052 7.6317 4.89846 7.5 5.22998 7.5H26.86C28.2332 7.54954 29.5307 8.14162 30.468 9.1464C31.4053 10.1512 31.9059 11.4867 31.86 12.86V16.46C31.8613 16.6267 31.8293 16.792 31.7659 16.9461C31.7024 17.1002 31.6087 17.2401 31.4904 17.3575C31.3721 17.4749 31.2314 17.5675 31.0768 17.6297C30.9222 17.692 30.7567 17.7227 30.59 17.72Z" fill="black"/>
<path d="M26.86 33.68H5.22995C3.85675 33.6305 2.55924 33.0384 1.62194 32.0336C0.684634 31.0288 0.184049 29.6933 0.229951 28.32V5.76001C0.229951 5.42849 0.361647 5.11055 0.596067 4.87613C0.830488 4.64171 1.14843 4.51001 1.47995 4.51001C1.81147 4.51001 2.12941 4.64171 2.36383 4.87613C2.59825 5.11055 2.72995 5.42849 2.72995 5.76001V28.32C2.68311 29.0273 2.91734 29.7245 3.38174 30.2601C3.84613 30.7956 4.50314 31.1262 5.20995 31.18H26.86C27.5668 31.1262 28.2238 30.7956 28.6882 30.2601C29.1526 29.7245 29.3868 29.0273 29.34 28.32V25.78C29.34 25.4485 29.4716 25.1305 29.7061 24.8961C29.9405 24.6617 30.2584 24.53 30.59 24.53C30.9215 24.53 31.2394 24.6617 31.4738 24.8961C31.7083 25.1305 31.84 25.4485 31.84 25.78V28.32C31.8859 29.69 31.3881 31.0226 30.4551 32.0268C29.522 33.031 28.2296 33.6253 26.86 33.68Z" fill="black"/>
<path d="M26.35 9.99991C26.0219 9.99995 25.707 9.87101 25.4731 9.64089C25.2393 9.41078 25.1052 9.09795 25.1 8.76991V5.99991C25.0766 5.4066 24.8195 4.84661 24.3849 4.442C23.9504 4.0374 23.3735 3.82097 22.78 3.83991H4.78C4.26971 3.82097 3.77271 4.00502 3.39784 4.35177C3.02298 4.69852 2.80081 5.17969 2.78 5.68991C2.80081 6.20013 3.02298 6.6813 3.39784 7.02805C3.77271 7.3748 4.26971 7.55886 4.78 7.53991H15.78C16.1115 7.53991 16.4295 7.67161 16.6639 7.90603C16.8983 8.14045 17.03 8.45839 17.03 8.78991C17.03 9.12143 16.8983 9.43937 16.6639 9.67379C16.4295 9.90822 16.1115 10.0399 15.78 10.0399H4.75C4.1674 10.0492 3.58869 9.94341 3.04702 9.72867C2.50535 9.51394 2.01137 9.19446 1.59336 8.78852C1.17535 8.38259 0.841529 7.89818 0.611013 7.36304C0.380498 6.8279 0.257818 6.25254 0.25 5.66991C0.271041 4.4967 0.756681 3.37977 1.60034 2.56423C2.444 1.74869 3.57675 1.30118 4.75 1.31991H22.75C23.3763 1.30666 23.999 1.41742 24.5823 1.64581C25.1657 1.87421 25.698 2.21573 26.1488 2.65072C26.5996 3.08571 26.9599 3.60556 27.209 4.18036C27.458 4.75516 27.5909 5.37354 27.6 5.99991V8.76991C27.5948 9.09795 27.4607 9.41078 27.2269 9.64089C26.993 9.87101 26.6781 9.99995 26.35 9.99991ZM31.4 26.9999H24.47C23.1164 27.0267 21.8074 26.5152 20.8306 25.5778C19.8538 24.6403 19.2889 23.3535 19.26 21.9999V20.1899C19.2889 18.8363 19.8538 17.5495 20.8306 16.6121C21.8074 15.6746 23.1164 15.1631 24.47 15.1899H31.47C31.9073 15.1912 32.3401 15.2787 32.7436 15.4472C33.1471 15.6158 33.5134 15.8622 33.8217 16.1723C34.13 16.4825 34.3742 16.8503 34.5403 17.2548C34.7065 17.6593 34.7913 18.0926 34.79 18.5299V23.7199C34.7742 24.604 34.4085 25.4458 33.773 26.0607C33.1375 26.6755 32.2841 27.0133 31.4 26.9999ZM24.47 17.6999C23.781 17.6728 23.1092 17.9194 22.6014 18.386C22.0937 18.8525 21.7912 19.5011 21.76 20.1899V22.0499C21.7912 22.7388 22.0937 23.3873 22.6014 23.8538C23.1092 24.3204 23.781 24.567 24.47 24.5399H31.4C31.6184 24.5399 31.828 24.4539 31.9834 24.3004C32.1388 24.1469 32.2274 23.9383 32.23 23.7199V18.5299C32.224 18.3303 32.1417 18.1406 32 17.9999C31.925 17.9215 31.835 17.859 31.7354 17.8161C31.6357 17.7731 31.5285 17.7506 31.42 17.7499L24.47 17.6999Z" fill="black"/>
<path d="M25.16 22.3701C25.8504 22.3701 26.41 21.8105 26.41 21.1201C26.41 20.4298 25.8504 19.8701 25.16 19.8701C24.4697 19.8701 23.91 20.4298 23.91 21.1201C23.91 21.8105 24.4697 22.3701 25.16 22.3701Z" fill="black"/>
</svg>
