<svg width="16" height="22" viewBox="0 0 16 22" fill="none" xmlns="http://www.w3.org/2000/svg">
<path d="M9.83085 1.03936C9.32648 1.55492 9.28537 2.36542 9.75137 2.91034C13.6424 7.53794 13.7167 14.3175 9.9383 19.0393C9.48447 19.6043 9.53346 20.4238 10.049 20.9282C10.6455 21.5117 11.625 21.4609 12.1478 20.8051C16.7549 15.0443 16.6643 6.78475 11.9318 1.11632C11.4047 0.472061 10.4242 0.432813 9.83085 1.03936ZM2.15644 8.88401L0.702651 10.37C0.316952 10.7643 0.323862 11.3943 0.718117 11.78L2.20415 13.2337C2.67928 13.6986 3.48814 13.5897 3.79154 12.9863C4.40812 11.7595 4.3921 10.2996 3.74865 9.07656C3.43241 8.50999 2.62126 8.40888 2.15644 8.88401ZM5.8453 5.11332C5.36071 5.60867 5.31915 6.37917 5.73538 6.94464C7.49204 9.36551 7.52802 12.6453 5.82489 15.1041C5.43116 15.6785 5.47961 16.448 5.97495 16.9326L5.98506 16.9425C6.59161 17.5359 7.61111 17.4847 8.09351 16.7894C10.5456 13.3223 10.4942 8.63254 7.96649 5.21006C7.45895 4.52558 6.44857 4.49667 5.8453 5.11332Z" fill="black"/>
</svg>
