<svg width="12" height="12" viewBox="0 0 12 12" fill="none" xmlns="http://www.w3.org/2000/svg">
<g clip-path="url(#clip0_449_6)">
<path d="M0.969002 11.0275C1.10466 11.1631 1.28863 11.2393 1.48044 11.2393C1.67226 11.2393 1.85623 11.1631 1.99188 11.0275L5.99657 7.02279L10.0013 11.0275C10.1377 11.1593 10.3204 11.2322 10.5101 11.2305C10.6998 11.2289 10.8812 11.1528 11.0153 11.0187C11.1495 10.8846 11.2255 10.7031 11.2272 10.5134C11.2288 10.3238 11.1559 10.141 11.0242 10.0046L7.01945 5.99992L11.0242 1.99523C11.1559 1.85879 11.2288 1.67606 11.2272 1.48639C11.2255 1.29672 11.1495 1.11529 11.0153 0.981163C10.8812 0.847041 10.6998 0.770963 10.5101 0.769314C10.3204 0.767666 10.1377 0.84058 10.0013 0.972351L5.99657 4.97704L1.99188 0.972351C1.85545 0.84058 1.67272 0.767666 1.48305 0.769314C1.29338 0.770963 1.11194 0.847041 0.977813 0.981163C0.843691 1.11529 0.767613 1.29672 0.765965 1.48639C0.764316 1.67606 0.83723 1.85879 0.969002 1.99523L4.9737 5.99992L0.969002 10.0046C0.833387 10.1403 0.757202 10.3242 0.757202 10.516C0.757202 10.7079 0.833387 10.8918 0.969002 11.0275Z" fill="black"/>
</g>
<defs>
<clipPath id="clip0_449_6">
<rect width="12" height="12" fill="white"/>
</clipPath>
</defs>
</svg>
