<svg width="40" height="40" viewBox="0 0 40 40" fill="none" xmlns="http://www.w3.org/2000/svg">
<path d="M22.35 19.9999L32.85 9.51661C33.1638 9.20277 33.3401 8.77711 33.3401 8.33328C33.3401 7.88944 33.1638 7.46378 32.85 7.14994C32.5361 6.8361 32.1105 6.65979 31.6666 6.65979C31.2228 6.65979 30.7972 6.8361 30.4833 7.14994L20 17.6499L9.51665 7.14994C9.20281 6.8361 8.77715 6.65979 8.33331 6.65979C7.88948 6.65979 7.46382 6.8361 7.14998 7.14994C6.83614 7.46378 6.65983 7.88944 6.65983 8.33328C6.65983 8.77711 6.83614 9.20277 7.14998 9.51661L17.65 19.9999L7.14998 30.4833C6.99377 30.6382 6.86978 30.8225 6.78516 31.0256C6.70055 31.2287 6.65698 31.4466 6.65698 31.6666C6.65698 31.8866 6.70055 32.1045 6.78516 32.3076C6.86978 32.5107 6.99377 32.695 7.14998 32.8499C7.30492 33.0062 7.48925 33.1301 7.69235 33.2148C7.89545 33.2994 8.11329 33.3429 8.33331 33.3429C8.55333 33.3429 8.77118 33.2994 8.97427 33.2148C9.17737 33.1301 9.36171 33.0062 9.51665 32.8499L20 22.3499L30.4833 32.8499C30.6383 33.0062 30.8226 33.1301 31.0257 33.2148C31.2288 33.2994 31.4466 33.3429 31.6666 33.3429C31.8867 33.3429 32.1045 33.2994 32.3076 33.2148C32.5107 33.1301 32.695 33.0062 32.85 32.8499C33.0062 32.695 33.1302 32.5107 33.2148 32.3076C33.2994 32.1045 33.343 31.8866 33.343 31.6666C33.343 31.4466 33.2994 31.2287 33.2148 31.0256C33.1302 30.8225 33.0062 30.6382 32.85 30.4833L22.35 19.9999Z" fill="black"/>
</svg>
