<svg width="283" height="58" viewBox="0 0 283 58" fill="none" xmlns="http://www.w3.org/2000/svg">
<circle cx="29" cy="29" r="29" fill="black"/>
<path d="M30 15L41.2583 37.5H18.7417L30 15Z" fill="#D9D9D9"/>
<path d="M100.261 30.4545C100.261 33.6269 99.66 36.3258 98.4574 38.5511C97.2642 40.7765 95.6354 42.4763 93.571 43.6506C91.5161 44.8153 89.2055 45.3977 86.6392 45.3977C84.054 45.3977 81.7339 44.8106 79.679 43.6364C77.6241 42.4621 76 40.7623 74.8068 38.5369C73.6136 36.3116 73.017 33.6174 73.017 30.4545C73.017 27.2822 73.6136 24.5833 74.8068 22.358C76 20.1326 77.6241 18.4375 79.679 17.2727C81.7339 16.0985 84.054 15.5114 86.6392 15.5114C89.2055 15.5114 91.5161 16.0985 93.571 17.2727C95.6354 18.4375 97.2642 20.1326 98.4574 22.358C99.66 24.5833 100.261 27.2822 100.261 30.4545ZM94.0256 30.4545C94.0256 28.3996 93.7178 26.6667 93.1023 25.2557C92.4962 23.8447 91.6392 22.7746 90.5312 22.0455C89.4233 21.3163 88.1259 20.9517 86.6392 20.9517C85.1525 20.9517 83.8551 21.3163 82.7472 22.0455C81.6392 22.7746 80.7775 23.8447 80.1619 25.2557C79.5559 26.6667 79.2528 28.3996 79.2528 30.4545C79.2528 32.5095 79.5559 34.2424 80.1619 35.6534C80.7775 37.0644 81.6392 38.1345 82.7472 38.8636C83.8551 39.5928 85.1525 39.9574 86.6392 39.9574C88.1259 39.9574 89.4233 39.5928 90.5312 38.8636C91.6392 38.1345 92.4962 37.0644 93.1023 35.6534C93.7178 34.2424 94.0256 32.5095 94.0256 30.4545ZM129.15 15.9091V45H123.837L111.181 26.6903H110.968V45H104.817V15.9091H110.215L122.772 34.2045H123.028V15.9091H129.15ZM134.232 45V15.9091H153.834V20.9801H140.382V27.9119H152.825V32.983H140.382V39.929H153.891V45H134.232ZM167.982 45V15.9091H179.629C181.769 15.9091 183.554 16.2263 184.984 16.8608C186.414 17.4953 187.489 18.3759 188.209 19.5028C188.929 20.6203 189.288 21.9081 189.288 23.3665C189.288 24.5028 189.061 25.5019 188.607 26.3636C188.152 27.2159 187.527 27.9167 186.732 28.4659C185.946 29.0057 185.046 29.3892 184.033 29.6165V29.9006C185.141 29.9479 186.178 30.2604 187.143 30.8381C188.119 31.4157 188.91 32.2254 189.516 33.267C190.122 34.2992 190.425 35.5303 190.425 36.9602C190.425 38.5038 190.041 39.8816 189.274 41.0938C188.517 42.2964 187.394 43.2481 185.908 43.9489C184.421 44.6496 182.589 45 180.411 45H167.982ZM174.132 39.9716H179.146C180.86 39.9716 182.11 39.6449 182.896 38.9915C183.682 38.3286 184.075 37.4479 184.075 36.3494C184.075 35.5445 183.881 34.8343 183.493 34.2188C183.105 33.6032 182.551 33.1203 181.831 32.7699C181.121 32.4195 180.273 32.2443 179.288 32.2443H174.132V39.9716ZM174.132 28.0824H178.692C179.535 28.0824 180.283 27.9356 180.936 27.642C181.599 27.339 182.12 26.9129 182.499 26.3636C182.887 25.8144 183.081 25.1562 183.081 24.3892C183.081 23.3381 182.707 22.4905 181.959 21.8466C181.22 21.2027 180.169 20.8807 178.805 20.8807H174.132V28.0824ZM199.441 45H192.85L202.893 15.9091H210.819L220.847 45H214.256L206.969 22.5568H206.742L199.441 45ZM199.029 33.5653H214.597V38.3665H199.029V33.5653ZM248.681 15.9091V45H243.369L230.712 26.6903H230.499V45H224.349V15.9091H229.746L242.303 34.2045H242.559V15.9091H248.681ZM253.763 45V15.9091H259.913V28.7358H260.297L270.766 15.9091H278.138L267.342 28.9347L278.266 45H270.908L262.939 33.0398L259.913 36.733V45H253.763Z" fill="black"/>
</svg>
