<svg width="18" height="12" viewBox="0 0 18 12" fill="none" xmlns="http://www.w3.org/2000/svg">
<g clip-path="url(#clip0_450_8)">
<path d="M1 7C1.55228 7 2 6.55228 2 6C2 5.44772 1.55228 5 1 5C0.447715 5 0 5.44772 0 6C0 6.55228 0.447715 7 1 7Z" fill="black"/>
<path d="M17.06 5H4.94C4.42085 5 4 5.42085 4 5.94V6.06C4 6.57915 4.42085 7 4.94 7H17.06C17.5791 7 18 6.57915 18 6.06V5.94C18 5.42085 17.5791 5 17.06 5Z" fill="black"/>
<path d="M17.06 10H0.94C0.420852 10 0 10.4209 0 10.94V11.06C0 11.5791 0.420852 12 0.94 12H17.06C17.5791 12 18 11.5791 18 11.06V10.94C18 10.4209 17.5791 10 17.06 10Z" fill="black"/>
<path d="M17.06 0H0.94C0.420852 0 0 0.420852 0 0.94V1.06C0 1.57915 0.420852 2 0.94 2H17.06C17.5791 2 18 1.57915 18 1.06V0.94C18 0.420852 17.5791 0 17.06 0Z" fill="black"/>
</g>
<defs>
<clipPath id="clip0_450_8">
<rect width="18" height="12" fill="white"/>
</clipPath>
</defs>
</svg>
