<svg width="14" height="12" viewBox="0 0 14 12" fill="none" xmlns="http://www.w3.org/2000/svg">
<path d="M13.94 6.21409C13.9505 6.13109 13.9505 6.0471 13.94 5.96409V5.90409C13.9395 5.79792 13.9192 5.69277 13.88 5.59409C13.8385 5.48183 13.7737 5.3796 13.69 5.29409L8.69 0.294092C8.5017 0.105788 8.2463 0 7.98 0C7.7137 0 7.4583 0.105788 7.27 0.294092C7.0817 0.482396 6.97591 0.737791 6.97591 1.00409C6.97591 1.27039 7.0817 1.52579 7.27 1.71409L10.59 4.90409H1C0.734784 4.90409 0.48043 5.00945 0.292893 5.19699C0.105357 5.38452 0 5.63888 0 5.90409C0 6.16931 0.105357 6.42366 0.292893 6.6112C0.48043 6.79874 0.734784 6.90409 1 6.90409H10.59L7.29 10.1941C7.19627 10.2871 7.12188 10.3977 7.07111 10.5195C7.02034 10.6414 6.9942 10.7721 6.9942 10.9041C6.9942 11.0361 7.02034 11.1668 7.07111 11.2887C7.12188 11.4105 7.19627 11.5211 7.29 11.6141C7.38296 11.7078 7.49356 11.7822 7.61542 11.833C7.73728 11.8838 7.86799 11.9099 8 11.9099C8.13201 11.9099 8.26272 11.8838 8.38458 11.833C8.50644 11.7822 8.61704 11.7078 8.71 11.6141L13.71 6.61409C13.7907 6.52623 13.8551 6.42463 13.9 6.31409C13.9193 6.28344 13.9328 6.24956 13.94 6.21409Z" fill="white"/>
</svg>
